<svg xmlns="http://www.w3.org/2000/svg" version="1.1" viewBox="-5.0 -10.0 110.0 135.0">
 <path d="m85.688 20.562c0-1.8984-1.543-3.4414-3.4414-3.4414h-64.492c-1.8984 0-3.4414 1.543-3.4414 3.4414v4.5742h71.379v-4.5742z"/>
 <path d="m19.762 82.879c0.96094 0 1.7422-0.78125 1.7422-1.7422v-13.277h-8.543v13.277c0 0.96094 0.78125 1.7422 1.7422 1.7422z"/>
 <path d="m86.34 49.234h-72.68l-3.918 5.832h80.516z"/>
 <path d="m78.496 81.137c0 0.96094 0.78125 1.7422 1.7422 1.7422h5.0586c0.96094 0 1.7422-0.78125 1.7422-1.7422v-13.277h-8.543z"/>
 <path d="m9.6992 64.734h80.598c1.293 0 2.4297-0.68359 3.0391-1.8242 0.60937-1.1406 0.53906-2.4648-0.17969-3.5391l-0.79688-1.1836-84.719 0.003906-0.79688 1.1836c-0.72266 1.0742-0.78906 2.3945-0.18359 3.5391 0.60938 1.1406 1.7461 1.8242 3.0391 1.8242z"/>
 <path d="m39.742 75.988c0.96094 0 1.7422-0.78125 1.7422-1.7422v-6.3867h-8.543v6.3867c0 0.96094 0.78125 1.7422 1.7422 1.7422z"/>
 <path d="m14.312 39.285h71.379v6.8242h-71.379z"/>
 <path d="m14.312 28.262h71.379v7.8984h-71.379z"/>
 <path d="m65.32 75.988c0.96094 0 1.7422-0.78125 1.7422-1.7422v-6.3867h-8.543v6.3867c0 0.96094 0.78125 1.7422 1.7422 1.7422z"/>
</svg>